<svg viewBox="0 0 500 519" xmlns="http://www.w3.org/2000/svg" width="100%" height="auto">
  <g fill="#162840" fill-rule="evenodd">
  <path d="M347.173,55.76 L349.505,464.02 L354.17,461.679 L355.724,461.679 L357.279,460.898 L358.834,459.337 L364.276,456.995 L365.83,455.434 L369.717,453.872 L372.049,452.311 L373.604,450.75 L375.936,449.969 L377.491,448.408 L379.823,447.628 L382.155,445.286 L384.488,444.505 L386.82,442.944 L389.929,440.602 L392.261,439.041 L396.926,435.138 L400.813,432.015 L406.254,427.332 L421.025,413.281 L424.912,408.597 L429.576,403.133 L431.131,400.01 L434.24,396.888 L437.35,392.985 L438.905,390.643 L441.237,387.52 L442.792,385.179 L444.346,382.837 L444.346,381.276 L445.901,378.934 L448.233,376.592 L449.011,374.25 L450.565,372.689 L450.565,371.128 L452.12,368.005 L453.675,366.444 L453.675,364.883 L459.117,354.735 L459.117,353.173 L462.226,347.709 L463.004,345.367 L463.004,343.806 L464.558,341.464 L465.336,339.122 L466.113,336.781 L466.89,334.439 L467.668,332.097 L468.445,328.974 L469.223,325.852 L469.223,321.949 L449.011,322.73 L449.011,325.071 L447.456,327.413 L447.456,328.974 L446.678,331.316 L445.901,333.658 L445.124,336.0 L444.346,338.342 L442.792,340.684 L442.792,342.245 L441.237,344.587 L441.237,346.148 L440.459,348.49 L438.905,350.051 L438.905,351.612 L438.127,353.173 L436.572,354.735 L432.686,363.321 L431.131,364.883 L429.576,368.786 L428.021,371.128 L426.466,373.469 L424.912,375.811 L423.357,377.372 L422.58,379.714 L421.025,382.056 L417.915,385.959 L415.583,389.082 L413.251,392.204 L403.922,401.571 L397.703,408.597 L390.707,414.061 L389.152,416.403 L384.488,420.306 L381.378,422.648 L379.046,424.209 L376.714,425.77 L374.382,427.332 L372.049,428.112 L368.163,429.673 L367.385,428.112 L368.163,268.867 L455.23,268.867 L455.23,249.352 L368.94,249.352 L367.385,247.791 L370.495,88.546 L372.827,90.888 L375.159,91.668 L377.491,93.23 L380.601,95.571 L384.488,98.694 L388.375,101.816 L397.703,111.184 L401.59,115.087 L410.919,124.454 L414.028,128.357 L417.138,132.26 L420.247,136.163 L421.802,138.505 L423.357,140.847 L424.912,143.189 L426.466,145.531 L427.244,147.872 L429.576,150.214 L431.131,154.117 L432.686,155.679 L435.018,161.143 L436.572,162.704 L436.572,164.265 L437.35,165.827 L438.905,167.388 L439.682,168.949 L439.682,170.51 L442.792,175.974 L443.569,178.316 L443.569,180.658 L445.901,184.561 L446.678,186.903 L447.456,189.245 L448.233,191.587 L449.011,193.929 L449.011,196.27 L450.565,197.051 L469.223,196.27 L469.223,193.148 L468.445,190.026 L467.668,187.684 L466.89,184.561 L466.113,182.219 L465.336,179.878 L463.781,177.536 L463.781,175.974 L462.226,173.633 L462.226,172.071 L460.671,169.73 L460.671,168.168 L459.117,165.827 L459.117,164.265 L452.12,150.214 L450.565,148.653 L448.233,143.189 L446.678,140.847 L445.124,139.286 L444.346,136.944 L442.014,134.602 L441.237,132.26 L439.682,129.918 L437.35,126.796 L435.018,123.673 L432.686,120.551 L431.131,118.209 L427.244,113.526 L424.134,109.622 L409.364,94.791 L401.59,87.765 L397.703,84.643 L393.816,81.52 L390.707,79.179 L387.597,76.837 L384.488,74.495 L382.155,73.714 L380.601,72.153 L378.269,71.372 L376.714,69.811 L374.382,68.25 L370.495,66.689 L368.94,65.128 L363.498,62.786 L361.943,61.224 L360.389,60.444 L358.834,60.444 L357.279,58.883 L349.505,54.98 Z"/>
  <path d="M150.495,55.76 L148.94,55.76 L138.057,61.224 L136.502,62.786 L127.951,66.689 L125.618,68.25 L124.064,69.811 L121.731,70.592 L119.399,72.153 L117.067,73.714 L114.735,75.276 L112.403,76.837 L110.071,78.398 L106.184,81.52 L103.074,83.862 L99.187,86.985 L94.523,90.888 L87.527,97.133 L85.194,99.474 L82.085,102.597 L80.53,104.158 L75.088,110.403 L70.424,115.867 L68.092,118.99 L66.537,122.112 L63.428,125.235 L61.873,127.577 L59.541,130.699 L57.208,133.821 L56.431,136.163 L54.876,137.724 L53.322,140.066 L51.767,142.408 L50.212,144.75 L43.216,158.801 L43.216,160.362 L38.551,168.949 L38.551,170.51 L36.996,172.852 L36.219,175.194 L36.219,177.536 L33.887,181.439 L33.11,183.781 L32.332,187.684 L31.555,190.806 L31.555,211.883 L32.332,215.005 L33.11,218.128 L33.887,220.469 L34.664,222.811 L37.774,228.276 L37.774,229.837 L40.106,232.179 L40.883,234.52 L42.438,236.862 L46.325,241.546 L50.212,245.449 L54.099,248.571 L57.986,251.694 L60.318,253.255 L62.65,254.816 L64.982,255.597 L66.537,257.158 L68.869,257.939 L70.424,259.5 L76.643,262.622 L78.198,262.622 L82.085,264.964 L84.417,265.745 L85.972,265.745 L87.527,267.306 L89.081,267.306 L91.413,268.087 L96.855,271.209 L98.41,271.209 L99.965,272.77 L101.519,273.551 L103.074,273.551 L105.406,275.112 L107.739,276.673 L110.071,278.235 L113.18,280.577 L116.29,282.918 L117.845,285.26 L123.286,289.944 L124.841,292.286 L126.396,294.628 L130.283,302.434 L131.06,304.776 L131.837,307.117 L132.615,311.02 L133.392,314.143 L132.615,431.235 L131.06,431.235 L129.505,429.673 L127.173,428.112 L124.841,427.332 L121.731,424.99 L119.399,423.429 L115.512,420.306 L111.625,417.184 L106.184,412.5 L93.746,399.23 L92.191,397.668 L86.749,392.204 L83.64,388.301 L80.53,384.398 L78.975,382.056 L76.643,378.934 L75.088,376.592 L73.534,374.25 L71.979,371.908 L71.201,369.566 L69.647,368.005 L68.869,365.663 L67.314,364.102 L65.76,361.76 L65.76,360.199 L57.986,345.367 L57.986,343.806 L56.431,341.464 L55.654,339.122 L55.654,337.561 L54.099,335.219 L53.322,332.878 L53.322,330.536 L52.544,328.194 L50.989,325.852 L50.989,322.73 L49.435,321.949 L30.0,322.73 L30.0,324.291 L30.777,327.413 L31.555,330.536 L32.332,333.658 L33.11,336.0 L33.887,338.342 L34.664,340.684 L36.996,344.587 L36.996,346.148 L37.774,348.49 L40.106,352.393 L40.106,353.954 L43.993,360.98 L43.993,362.541 L44.77,364.102 L46.325,365.663 L50.989,375.811 L52.544,378.153 L54.099,379.714 L54.876,382.056 L57.208,385.179 L58.763,387.52 L60.318,389.862 L62.65,392.985 L64.982,396.107 L66.537,398.449 L69.647,402.352 L73.534,407.036 L78.975,413.281 L80.53,414.842 L82.085,416.403 L88.304,422.648 L96.078,429.673 L99.965,432.796 L103.852,435.138 L107.739,439.041 L111.625,442.163 L115.512,443.724 L117.845,446.066 L120.177,447.628 L122.509,448.408 L124.064,449.969 L127.951,451.531 L129.505,453.092 L133.392,454.653 L134.947,456.214 L137.279,457.776 L139.611,458.556 L141.166,460.117 L142.721,460.117 L151.272,464.801 L153.604,464.801 L153.604,315.704 L152.827,309.459 L152.049,305.556 L151.272,302.434 L150.495,300.092 L149.717,297.75 L148.94,295.408 L148.163,293.066 L146.608,291.505 L145.83,289.944 L145.83,288.383 L144.276,286.821 L143.498,284.48 L141.943,282.138 L139.611,279.015 L137.279,275.893 L130.283,268.867 L127.173,266.526 L124.841,264.964 L122.509,263.403 L119.399,261.061 L117.067,260.281 L115.512,258.719 L99.965,250.913 L98.41,250.913 L92.968,247.791 L91.413,247.791 L87.527,245.449 L85.972,245.449 L76.643,240.765 L74.311,239.204 L71.979,237.643 L69.647,236.082 L66.537,233.74 L61.095,228.276 L58.763,225.153 L56.431,222.031 L53.322,215.786 L52.544,213.444 L51.767,210.321 L50.989,205.638 L50.989,194.709 L51.767,190.806 L52.544,188.464 L53.322,186.122 L54.099,183.781 L54.876,181.439 L56.431,179.097 L56.431,177.536 L57.986,175.194 L57.986,173.633 L67.314,154.898 L68.869,152.556 L70.424,150.214 L71.979,148.653 L72.756,146.311 L74.311,143.969 L75.866,142.408 L76.643,140.066 L79.753,136.163 L82.085,133.041 L84.417,129.918 L87.527,126.015 L92.191,120.551 L103.074,110.403 L105.406,107.281 L111.625,101.816 L114.735,99.474 L118.622,96.352 L121.731,94.01 L124.841,91.668 L127.173,90.107 L129.505,89.327 L131.06,87.765 L133.392,88.546 L133.392,196.27 L135.724,197.051 L152.049,197.051 L153.604,196.27 L152.827,54.199 Z"/>
  <path d="M243.781,30.0 L236.784,30.781 L233.675,31.561 L230.565,32.342 L228.233,33.122 L225.901,34.684 L223.569,34.684 L215.795,38.587 L214.24,40.148 L211.908,40.929 L208.799,43.27 L205.689,45.612 L197.138,54.199 L194.806,57.321 L193.251,59.663 L191.696,62.005 L189.364,67.469 L187.809,69.031 L187.032,71.372 L186.254,73.714 L185.477,76.056 L184.7,78.398 L183.922,81.52 L183.145,84.643 L182.367,88.546 L181.59,93.23 L181.59,423.429 L182.367,428.893 L183.145,433.577 L183.922,436.699 L184.7,439.821 L185.477,442.944 L187.032,445.286 L187.032,446.847 L189.364,450.75 L189.364,452.311 L190.141,453.872 L191.696,456.214 L193.251,457.776 L194.028,460.117 L197.138,464.02 L208.021,474.949 L210.353,476.51 L212.686,478.071 L215.018,478.852 L216.572,480.413 L219.682,481.974 L221.237,481.974 L223.569,483.536 L225.124,483.536 L227.456,485.097 L229.788,485.878 L232.12,486.658 L237.562,487.439 L243.004,488.219 L258.551,488.219 L263.993,487.439 L267.88,486.658 L270.989,485.878 L273.322,485.097 L275.654,484.316 L277.986,482.755 L279.541,482.755 L287.314,478.852 L289.647,477.291 L291.979,475.73 L294.311,474.168 L298.198,471.046 L305.194,463.24 L307.527,460.117 L308.304,457.776 L309.859,456.214 L310.636,453.872 L312.191,452.311 L312.191,450.75 L314.523,446.847 L315.3,444.505 L316.078,442.163 L316.855,439.821 L317.633,436.699 L318.41,433.577 L318.41,428.893 L319.965,424.209 L319.187,249.352 L251.555,251.694 L251.555,266.526 L251.555,268.867 L299.753,269.648 L299.753,424.209 L298.975,429.673 L298.198,433.577 L297.42,435.918 L295.866,438.26 L295.866,439.821 L293.534,444.505 L291.979,446.066 L290.424,449.969 L280.318,460.117 L277.986,461.679 L270.212,465.582 L267.88,466.362 L265.548,467.143 L263.216,467.923 L259.329,468.704 L242.226,468.704 L238.339,467.923 L235.23,467.143 L231.343,464.801 L229.788,464.801 L225.124,462.459 L222.792,460.898 L220.459,459.337 L211.908,450.75 L210.353,448.408 L209.576,446.066 L208.021,444.505 L207.244,442.944 L207.244,441.383 L204.912,437.48 L204.912,435.138 L203.357,432.796 L202.58,428.893 L201.802,424.99 L201.802,92.449 L202.58,88.546 L203.357,85.423 L204.134,83.082 L204.912,80.74 L210.353,69.811 L213.463,65.908 L220.459,58.883 L222.792,57.321 L225.124,55.76 L231.343,52.638 L233.675,51.857 L236.007,51.077 L239.117,50.296 L244.558,49.515 L257.774,49.515 L261.661,50.296 L264.77,51.077 L267.102,51.857 L269.435,52.638 L277.208,56.541 L279.541,58.102 L284.205,62.786 L285.76,64.347 L290.424,69.031 L291.979,71.372 L293.534,73.714 L295.866,78.398 L296.643,80.74 L296.643,82.301 L298.198,84.643 L298.975,88.546 L299.753,94.01 L299.753,196.27 L319.187,196.27 L319.965,165.046 L319.187,161.143 L319.965,159.582 L319.187,103.378 L319.187,101.036 L319.187,90.888 L318.41,85.423 L317.633,82.301 L316.855,78.398 L316.078,76.056 L315.3,73.714 L313.746,71.372 L313.746,69.811 L310.636,63.566 L309.081,61.224 L307.527,58.883 L305.972,56.541 L302.085,51.857 L298.198,47.954 L293.534,44.051 L291.201,42.49 L288.869,40.929 L286.537,39.367 L278.763,35.464 L276.431,34.684 L274.876,34.684 L272.544,33.122 L269.435,32.342 L267.102,31.561 L263.216,30.781 L257.774,30.0 Z"/>
  </g>
</svg>
